<svg width="24" height="28" viewBox="0 0 24 28" fill="none" xmlns="http://www.w3.org/2000/svg">
<path d="M18.1333 10.6667C18.4 9.86675 18.6667 8.93341 18.6667 8.00008C18.6667 4.00008 15.7333 0.666748 12 0.666748C8.26667 0.666748 5.33333 4.00008 5.33333 8.00008C5.33333 8.93341 5.46667 9.86675 5.86667 10.6667C2.53333 10.8001 0 13.2001 0 16.4001C0 19.7334 2.66667 22.0001 6 22.0001C6 22.0001 9.33333 22.0001 10.6667 20.6667C10.6667 20.6667 11.0667 23.3334 8 27.3334H16C12.9333 23.3334 13.3333 20.6667 13.3333 20.6667C14.6667 22.0001 18 22.0001 18 22.0001C21.3333 22.0001 24 19.7334 24 16.4001C24 13.2001 21.4667 10.8001 18.1333 10.6667ZM18 19.3334C18 19.3334 14.6667 19.3334 13.3333 18.0001H10.6667C9.33333 19.3334 6 19.3334 6 19.3334C4.4 19.3334 2.66667 18.4001 2.66667 16.4001C2.66667 14.6667 4.13333 13.3334 6 13.3334C6.4 13.3334 7.06667 13.4667 7.73333 13.6001C7.86667 13.6001 8 13.7334 8.13333 13.7334L9.33333 11.4667C9.06667 11.2001 8.93333 10.9334 8.8 10.6667C8.26667 9.86675 8 9.06675 8 8.00008C8 5.46675 9.73333 3.33341 12 3.33341C14.2667 3.33341 16 5.46675 16 8.00008C16 9.06675 15.7333 10.0001 15.2 10.8001C15.0667 11.0667 14.9333 11.2001 14.8 11.4667L16 13.7334C16.1333 13.7334 16.2667 13.6001 16.4 13.6001C16.9333 13.4667 17.6 13.3334 18.1333 13.3334C20 13.3334 21.4667 14.6667 21.4667 16.4001C21.3333 18.4001 19.6 19.3334 18 19.3334Z" fill="#8B949E"/>
</svg>
