<svg width="29" height="26" viewBox="0 0 29 26" fill="none" xmlns="http://www.w3.org/2000/svg">
<path d="M12.9202 0C13.9602 0.0133333 14.9468 0.64 15.3335 1.66667L22.0002 17.6C22.1202 17.9467 22.1868 18.3333 22.1735 18.6667C22.1583 19.1817 21.9958 19.6815 21.7051 20.1069C21.4144 20.5323 21.0078 20.8654 20.5335 21.0667L10.7068 25.1333C10.3602 25.2933 10.0002 25.3333 9.65351 25.3333C9.13238 25.3218 8.62605 25.1578 8.19713 24.8616C7.76822 24.5654 7.43552 24.1499 7.24017 23.6667L0.626841 7.73333C0.0668414 6.38667 0.720175 4.82667 2.08017 4.26667L11.8935 0.2C12.2268 0.0800001 12.5735 0 12.9202 0ZM17.5602 0H19.4935C20.2008 0 20.879 0.280951 21.3791 0.781048C21.8792 1.28115 22.1602 1.95942 22.1602 2.66667V11.1333L17.5602 0ZM24.8402 2.05333L26.6268 2.81333C26.9503 2.94503 27.2445 3.13928 27.4928 3.38494C27.741 3.63061 27.9382 3.92285 28.0733 4.24492C28.2083 4.56699 28.2784 4.91255 28.2796 5.26177C28.2808 5.611 28.213 5.95702 28.0802 6.28L24.8402 14.0933V2.05333ZM12.9202 2.62667L3.06684 6.72L9.69351 22.7333L19.5602 18.6533L12.9202 2.62667ZM9.53351 8.38667L13.8402 11.6L13.2535 16.9467L8.94684 13.72L9.53351 8.38667Z" fill="#8B949E"/>
</svg>
